<svg width="24" height="24" viewBox="0 0 24 24" fill="none" xmlns="http://www.w3.org/2000/svg">
<g id="calender" clip-path="url(#clip0_22_245)">
<path id="Vector" d="M19 2H18V1C18 0.448 17.553 0 17 0C16.447 0 16 0.448 16 1V2H8V1C8 0.448 7.553 0 7 0C6.447 0 6 0.448 6 1V2H5C2.243 2 0 4.243 0 7V19C0 21.757 2.243 24 5 24H19C21.757 24 24 21.757 24 19V7C24 4.243 21.757 2 19 2ZM5 4H19C20.654 4 22 5.346 22 7V8H2V7C2 5.346 3.346 4 5 4ZM19 22H5C3.346 22 2 20.654 2 19V10H22V19C22 20.654 20.654 22 19 22ZM15.707 16.105C16.098 16.496 16.098 17.128 15.707 17.519L14.094 19.132C13.517 19.709 12.758 19.998 12 19.998C11.242 19.998 10.483 19.709 9.906 19.132L8.293 17.519C7.902 17.128 7.902 16.496 8.293 16.105C8.684 15.714 9.316 15.714 9.707 16.105L11 17.398V13C11 12.448 11.447 12 12 12C12.553 12 13 12.448 13 13V17.398L14.293 16.105C14.684 15.714 15.316 15.714 15.707 16.105Z" fill="#333333"/>
</g>
<defs>
<clipPath id="clip0_22_245">
<rect width="24" height="24" fill="white"/>
</clipPath>
</defs>
</svg>
