<svg width="24" height="24" viewBox="0 0 24 24" fill="none" xmlns="http://www.w3.org/2000/svg">
<g id="down arrow">
<path id="Vector" d="M18.7101 8.20998C18.6171 8.11625 18.5065 8.04186 18.3846 7.99109C18.2628 7.94032 18.1321 7.91418 18.0001 7.91418C17.868 7.91418 17.7373 7.94032 17.6155 7.99109C17.4936 8.04186 17.383 8.11625 17.2901 8.20998L12.7101 12.79C12.6171 12.8837 12.5065 12.9581 12.3846 13.0089C12.2628 13.0596 12.1321 13.0858 12.0001 13.0858C11.868 13.0858 11.7373 13.0596 11.6155 13.0089C11.4936 12.9581 11.383 12.8837 11.2901 12.79L6.71006 8.20998C6.6171 8.11625 6.5065 8.04186 6.38464 7.99109C6.26278 7.94032 6.13207 7.91418 6.00006 7.91418C5.86805 7.91418 5.73734 7.94032 5.61548 7.99109C5.49362 8.04186 5.38302 8.11625 5.29006 8.20998C5.10381 8.39735 4.99927 8.6508 4.99927 8.91498C4.99927 9.17917 5.10381 9.43262 5.29006 9.61998L9.88006 14.21C10.4426 14.7718 11.2051 15.0873 12.0001 15.0873C12.7951 15.0873 13.5576 14.7718 14.1201 14.21L18.7101 9.61998C18.8963 9.43262 19.0009 9.17917 19.0009 8.91498C19.0009 8.6508 18.8963 8.39735 18.7101 8.20998Z" fill="#222222"/>
</g>
</svg>
