<svg width="24" height="24" viewBox="0 0 24 24" fill="none" xmlns="http://www.w3.org/2000/svg">
<g clip-path="url(#clip0_10_487)">
<path d="M16 24H8C5.243 24 3 21.757 3 19V7C3 4.243 5.243 2 8 2H8.171C8.584 0.836 9.696 0 11 0H13C14.304 0 15.416 0.836 15.829 2H16C18.757 2 21 4.243 21 7V19C21 21.757 18.757 24 16 24ZM8 4C6.346 4 5 5.346 5 7V19C5 20.654 6.346 22 8 22H16C17.654 22 19 20.654 19 19V7C19 5.346 17.654 4 16 4H15C14.448 4 14 3.552 14 3C14 2.448 13.551 2 13 2H11C10.449 2 10 2.449 10 3C10 3.551 9.552 4 9 4H8ZM12 13C13.381 13 14.5 11.881 14.5 10.5C14.5 9.119 13.381 8 12 8C10.619 8 9.5 9.119 9.5 10.5C9.5 11.881 10.619 13 12 13ZM16.249 18.968C16.784 18.831 17.106 18.285 16.968 17.751C16.409 15.578 14.32 14 12 14C9.68 14 7.591 15.578 7.032 17.751C6.894 18.286 7.216 18.831 7.751 18.968C8.288 19.106 8.831 18.784 8.968 18.249C9.298 16.967 10.601 16 12 16C13.399 16 14.702 16.967 15.032 18.249C15.148 18.701 15.554 19 16 19C16.082 19 16.165 18.99 16.249 18.968Z" fill="#333333"/>
</g>
<defs>
<clipPath id="clip0_10_487">
<rect width="24" height="24" fill="white"/>
</clipPath>
</defs>
</svg>
