<svg width="24" height="24" viewBox="0 0 24 24" fill="none" xmlns="http://www.w3.org/2000/svg">
<g id="request 1" clip-path="url(#clip0_66_1178)">
<path id="Vector" d="M8 4.99999C8 2.79399 6.206 0.999987 4 0.999987C1.794 0.999987 0 2.79399 0 4.99999C0 6.85999 1.277 8.42799 3 8.87299V16.126C1.277 16.571 0 18.139 0 19.999C0 22.205 1.794 23.999 4 23.999C6.206 23.999 8 22.205 8 19.999C8 18.139 6.723 16.571 5 16.126V8.87299C6.723 8.42799 8 6.85999 8 4.99999ZM2 4.99999C2 3.89699 2.897 2.99999 4 2.99999C5.103 2.99999 6 3.89699 6 4.99999C6 6.10299 5.103 6.99999 4 6.99999C2.897 6.99999 2 6.10299 2 4.99999ZM6 20C6 21.103 5.103 22 4 22C2.897 22 2 21.103 2 20C2 18.897 2.897 18 4 18C5.103 18 6 18.897 6 20ZM21 16.127V8.99999C21 6.24299 18.757 3.99999 16 3.99999H12.529L14.725 1.68899C15.106 1.28899 15.089 0.654987 14.689 0.274987C14.29 -0.104013 13.656 -0.0890127 13.276 0.310987L10.88 2.83299C9.71 4.00199 9.71 5.90599 10.85 7.04499L13.265 9.67599C13.461 9.89099 13.731 9.99999 14.001 9.99999C14.243 9.99999 14.485 9.91299 14.677 9.73699C15.084 9.36299 15.112 8.73099 14.738 8.32399L12.605 5.99999H16.002C17.656 5.99999 19.002 7.34599 19.002 8.99999V16.127C17.278 16.572 16.002 18.14 16.002 20C16.002 22.206 17.796 24 20.002 24C22.208 24 24.002 22.206 24.002 20C24.002 18.14 22.726 16.572 21.002 16.127H21ZM20 22C18.897 22 18 21.103 18 20C18 18.897 18.897 18 20 18C21.103 18 22 18.897 22 20C22 21.103 21.103 22 20 22Z" fill="black"/>
</g>
<defs>
<clipPath id="clip0_66_1178">
<rect width="24" height="24" fill="white"/>
</clipPath>
</defs>
</svg>
