<svg width="24" height="24" viewBox="0 0 24 24" fill="none" xmlns="http://www.w3.org/2000/svg">
<g id="right arrow">
<path id="Vector" d="M15.4 9.88L10.81 5.29C10.6227 5.10375 10.3692 4.99921 10.105 4.99921C9.84086 4.99921 9.58741 5.10375 9.40005 5.29C9.30632 5.38296 9.23192 5.49356 9.18116 5.61542C9.13039 5.73728 9.10425 5.86799 9.10425 6C9.10425 6.13201 9.13039 6.26272 9.18116 6.38458C9.23192 6.50644 9.30632 6.61704 9.40005 6.71L14 11.29C14.0938 11.383 14.1682 11.4936 14.2189 11.6154C14.2697 11.7373 14.2958 11.868 14.2958 12C14.2958 12.132 14.2697 12.2627 14.2189 12.3846C14.1682 12.5064 14.0938 12.617 14 12.71L9.40005 17.29C9.21174 17.477 9.10543 17.7311 9.10449 17.9965C9.10355 18.2618 9.20807 18.5167 9.39505 18.705C9.58202 18.8933 9.83615 18.9996 10.1015 19.0006C10.3669 19.0015 10.6217 18.897 10.81 18.71L15.4 14.12C15.9618 13.5575 16.2774 12.795 16.2774 12C16.2774 11.205 15.9618 10.4425 15.4 9.88Z" fill="black"/>
</g>
</svg>
