<svg width="24" height="24" viewBox="0 0 24 24" fill="none" xmlns="http://www.w3.org/2000/svg">
<g id="up arrow">
<path id="Vector" d="M17.9999 15.5C17.8683 15.5008 17.7379 15.4755 17.616 15.4258C17.4942 15.376 17.3834 15.3027 17.2899 15.21L12.7099 10.62C12.617 10.5263 12.5064 10.4519 12.3845 10.4011C12.2627 10.3503 12.132 10.3242 11.9999 10.3242C11.8679 10.3242 11.7372 10.3503 11.6154 10.4011C11.4935 10.4519 11.3829 10.5263 11.2899 10.62L6.70994 15.21C6.52164 15.3983 6.26624 15.5041 5.99994 15.5041C5.73364 15.5041 5.47825 15.3983 5.28994 15.21C5.10164 15.0217 4.99585 14.7663 4.99585 14.5C4.99585 14.3681 5.02182 14.2376 5.07228 14.1158C5.12274 13.9939 5.1967 13.8832 5.28994 13.79L9.87994 9.21C10.4499 8.66243 11.2096 8.35663 11.9999 8.35663C12.7903 8.35663 13.55 8.66243 14.1199 9.21L18.7099 13.79C18.8037 13.883 18.8781 13.9936 18.9288 14.1154C18.9796 14.2373 19.0057 14.368 19.0057 14.5C19.0057 14.632 18.9796 14.7627 18.9288 14.8846C18.8781 15.0064 18.8037 15.117 18.7099 15.21C18.6165 15.3027 18.5057 15.376 18.3838 15.4258C18.262 15.4755 18.1315 15.5008 17.9999 15.5Z" fill="#222222"/>
</g>
</svg>
